<svg width="32" height="32" viewBox="0 0 32 32" fill="none" xmlns="http://www.w3.org/2000/svg">
<path d="M16.0001 8.16667C17.2887 8.16667 18.3334 7.122 18.3334 5.83333C18.3334 4.54467 17.2887 3.5 16.0001 3.5C14.7114 3.5 13.6667 4.54467 13.6667 5.83333C13.6667 7.122 14.7114 8.16667 16.0001 8.16667Z" fill="#00DFA2"/>
<path d="M28.0001 12.1667C29.2887 12.1667 30.3334 11.122 30.3334 9.83333C30.3334 8.54467 29.2887 7.5 28.0001 7.5C26.7114 7.5 25.6667 8.54467 25.6667 9.83333C25.6667 11.122 26.7114 12.1667 28.0001 12.1667Z" fill="#00DFA2"/>
<path d="M4.00008 12.1667C5.28875 12.1667 6.33342 11.122 6.33342 9.83333C6.33342 8.54467 5.28875 7.5 4.00008 7.5C2.71142 7.5 1.66675 8.54467 1.66675 9.83333C1.66675 11.122 2.71142 12.1667 4.00008 12.1667Z" fill="#00DFA2"/>
<path fill-rule="evenodd" clip-rule="evenodd" d="M28.3136 11.3625C28.3989 10.9385 28.2016 10.5092 27.8269 10.2958C27.4509 10.0838 26.9803 10.1358 26.6603 10.4265C26.6603 10.4265 25.2656 11.6945 23.6923 13.1252C22.9563 13.7945 21.9363 14.0545 20.9696 13.8212C20.0029 13.5878 19.2149 12.8905 18.8656 11.9585L16.9363 6.81584C16.7896 6.42517 16.4176 6.1665 16.0003 6.1665C15.5829 6.1665 15.2109 6.42517 15.0643 6.81584L13.1349 11.9585C12.7856 12.8905 11.9976 13.5878 11.0309 13.8212C10.0643 14.0545 9.04427 13.7945 8.30827 13.1252C6.73494 11.6945 5.34027 10.4265 5.34027 10.4265C5.02027 10.1358 4.5496 10.0838 4.1736 10.2958C3.79894 10.5092 3.6016 10.9385 3.68694 11.3625C3.68694 11.3625 5.17094 18.7825 5.92427 22.5518C6.26694 24.2665 7.77227 25.4998 9.52027 25.4998H22.4803C24.2283 25.4998 25.7336 24.2665 26.0763 22.5518C26.8296 18.7825 28.3136 11.3625 28.3136 11.3625Z" fill="#00DFA2"/>
<path fill-rule="evenodd" clip-rule="evenodd" d="M24 27.5H8C7.448 27.5 7 27.948 7 28.5C7 29.052 7.448 29.5 8 29.5H24C24.552 29.5 25 29.052 25 28.5C25 27.948 24.552 27.5 24 27.5Z" fill="#00DFA2"/>
</svg>
