<svg width="32" height="28" viewBox="0 0 32 28" fill="none" xmlns="http://www.w3.org/2000/svg">
<path d="M25.4838 14.7596L13.5831 26.6603C13.4444 26.7989 13.2925 26.931 13.134 27.0499C13.3322 27.1027 13.5369 27.1292 13.7482 27.1292H24.9356C26.2895 27.1292 27.3924 26.0263 27.3924 24.6724V14.6671C26.8641 14.6341 26.3225 14.5681 25.7612 14.4624C25.6753 14.5615 25.5829 14.6605 25.4838 14.7596Z" fill="#00DFA2"/>
<path d="M30.5161 6.96658C30.4963 6.94676 30.4765 6.92695 30.4567 6.90714C29.3538 5.80425 27.749 4.78721 25.9262 4.02773C25.596 3.88904 25.2592 3.76356 24.9224 3.65129V3.63148C24.9026 2.17196 23.727 0.996426 22.2675 0.976614L15.1351 0.870948C14.1907 0.857739 13.2793 1.22757 12.6123 1.89459L0.718201 13.8019C-0.2394 14.7595 -0.2394 16.318 0.718201 17.2757L8.62997 25.1874C9.58757 26.145 11.1461 26.145 12.1038 25.1874L24.011 13.2801C24.3544 12.9367 24.612 12.5339 24.7903 12.0914C25.9857 12.4282 27.148 12.6065 28.1716 12.5999C30.7076 12.5867 31.5464 11.4772 31.8237 10.8168C32.0945 10.1564 32.2926 8.77611 30.5161 6.96658ZM15.7823 13.7226C15.5049 13.8745 15.2209 14.0396 14.9369 14.1849C14.6662 14.3236 14.5737 14.2906 14.4746 14C14.2699 13.4188 13.9397 12.9235 13.484 12.5141C13.3651 12.4084 13.2397 12.3093 13.0878 12.2499C12.5462 12.0386 12.0707 12.3886 12.1368 12.9697C12.1698 13.2603 12.2622 13.5377 12.3745 13.8085C12.566 14.2774 12.7708 14.7463 12.9095 15.235C13.3585 16.7935 12.3679 18.3257 10.8027 18.4776C10.2348 18.5304 9.69324 18.4116 9.19793 18.1276C8.97999 18.0021 8.81489 18.0153 8.64978 18.2002C8.48468 18.3785 8.29976 18.5436 8.12805 18.7154C7.97616 18.8673 7.81105 18.8739 7.65916 18.722C7.46764 18.5436 7.28272 18.3521 7.09781 18.1672C6.93931 18.0021 6.95252 17.8304 7.11102 17.6719C7.23649 17.5464 7.36197 17.4143 7.48745 17.2889C7.76483 17.0049 7.76483 16.9851 7.54029 16.6747C7.2497 16.2784 6.99214 15.8624 6.83364 15.3935C6.70816 15.0302 6.74118 14.9378 7.07139 14.7529C7.31574 14.6142 7.5601 14.4755 7.81105 14.3434C8.10164 14.1915 8.18749 14.2245 8.28655 14.5349C8.45166 15.0633 8.72243 15.5322 9.05924 15.968C9.27718 16.252 9.54795 16.4633 9.87815 16.5954C10.4989 16.8398 11.0669 16.4039 11.0009 15.7435C10.981 15.5189 10.915 15.301 10.8292 15.0897C10.6178 14.5481 10.347 14.0264 10.2084 13.4518C9.97721 12.5273 10.0829 11.6819 10.8292 11.0215C11.6745 10.2753 12.6189 10.229 13.6161 10.6913C14.0256 10.8828 14.0256 10.8894 14.3426 10.5724C14.4482 10.4668 14.5539 10.3611 14.6662 10.2554C14.9105 10.0243 14.9898 10.0243 15.2341 10.2554C15.3068 10.3281 15.3794 10.4007 15.4521 10.4734C15.954 10.9753 15.954 10.9753 15.4521 11.4838C15.0954 11.8404 15.0954 11.8404 15.3926 12.2499C15.6238 12.5669 15.8021 12.9037 15.9408 13.2669C16.0134 13.4651 15.9738 13.617 15.7823 13.7226ZM29.9085 10.0243C29.684 10.5592 27.2867 11.0281 23.6478 9.50917C22.5779 9.06669 21.5873 8.51195 20.775 7.91757C20.7486 7.95059 20.7156 7.98361 20.6891 8.01664C19.8966 8.80913 18.6022 8.80913 17.8097 8.01664C17.0172 7.22414 17.0172 5.92972 17.8097 5.13723C18.6022 4.34473 19.8966 4.34473 20.6891 5.13723C21.1646 5.61273 21.3496 6.25993 21.2637 6.87412C22.043 7.42887 22.9808 7.93739 23.978 8.35345C24.3346 8.49874 24.6714 8.63082 25.0016 8.74309L24.962 5.87689C25.0215 5.90331 25.0743 5.92312 25.1337 5.94954C26.6923 6.59674 28.0924 7.4817 28.9972 8.38647C29.0104 8.39968 29.0236 8.41288 29.0368 8.42609C29.8953 9.29124 29.9812 9.84598 29.9085 10.0243Z" fill="#00DFA2"/>
</svg>
