<svg width="33" height="33" viewBox="0 0 33 33" fill="none" xmlns="http://www.w3.org/2000/svg">
<path fill-rule="evenodd" clip-rule="evenodd" d="M18.4543 1.87831L20.4192 3.34913C20.9566 3.75138 21.5223 3.95724 22.1925 3.99456L24.6431 4.13088C26.1105 4.21248 27.3023 5.21247 27.6375 6.64345L28.1973 9.03318C28.3504 9.68674 28.6514 10.208 29.1408 10.6674L30.9305 12.3471C32.0021 13.3528 32.2722 14.8849 31.6093 16.1966L30.502 18.387C30.1992 18.9861 30.0947 19.5789 30.1743 20.2454L30.4657 22.6825C30.6401 24.1418 29.8622 25.489 28.5113 26.0676L26.255 27.0339C25.6379 27.2982 25.1768 27.6851 24.8095 28.2469L23.4661 30.301C22.6617 31.5309 21.1998 32.063 19.793 31.6379L17.4436 30.9278C16.801 30.7337 16.1991 30.7337 15.5565 30.9278L13.207 31.6379C11.8003 32.063 10.3384 31.5309 9.534 30.301L8.1906 28.2469C7.82315 27.6851 7.36205 27.2982 6.74504 27.0339L4.48867 26.0675C3.13773 25.4889 2.35985 24.1416 2.53426 22.6824L2.82558 20.2453C2.90525 19.5787 2.80071 18.986 2.49791 18.3869L1.39066 16.1964C0.7277 14.8849 0.997823 13.3528 2.06942 12.347L3.85909 10.6673C4.34855 10.2079 4.64948 9.68661 4.80256 9.03305L5.3624 6.64332C5.69755 5.2124 6.88935 4.21241 8.35676 4.13075L10.8073 3.99443C11.4776 3.95718 12.0432 3.75125 12.5806 3.349L14.5455 1.87818C15.722 0.997618 17.2778 0.997618 18.4543 1.87831ZM15.2465 17.3418L13.1141 15.2095C12.5614 14.6568 11.6649 14.6568 11.1123 15.2095C10.5596 15.7622 10.5596 16.6586 11.1123 17.2113L14.2487 20.3475C14.8014 20.9002 15.6978 20.9002 16.2505 20.3475C18.1409 18.4571 20.0099 16.5454 21.8916 14.6463C22.4403 14.0925 22.4385 13.1989 21.8855 12.6489C21.3323 12.0988 20.4362 12.1004 19.8869 12.6551L15.2465 17.3418ZM16.4999 5.95903C13.5891 5.95903 10.9538 7.13891 9.04628 9.04646C7.13872 10.9541 5.95884 13.5893 5.95884 16.5001C5.95884 19.4108 7.13872 22.0461 9.04628 23.9537C10.9538 25.8613 13.5891 27.0411 16.4999 27.0411C19.4107 27.0411 22.046 25.8613 23.9535 23.9537C25.8611 22.0461 27.0409 19.4108 27.0409 16.5001C27.0409 13.5893 25.8611 10.954 23.9535 9.04646C22.046 7.13891 19.4107 5.95903 16.4999 5.95903ZM23.2244 9.77562C21.5035 8.05472 19.126 6.99028 16.4999 6.99028C13.8738 6.99028 11.4963 8.05472 9.77544 9.77562C8.05454 11.4965 6.99009 13.874 6.99009 16.5001C6.99009 19.1262 8.05454 21.5036 9.77544 23.2245C11.4963 24.9454 13.8738 26.0099 16.4999 26.0099C19.126 26.0099 21.5035 24.9454 23.2244 23.2246C24.9453 21.5037 26.0096 19.1262 26.0096 16.5001C26.0097 13.874 24.9453 11.4965 23.2244 9.77562Z" fill="#00DFA2"/>
</svg>
