<svg width="34" height="34" viewBox="0 0 34 34" fill="none" xmlns="http://www.w3.org/2000/svg">
<g clip-path="url(#clip0_16245_240)">
<path d="M14.0133 25.6476C15.0984 24.6361 15.2655 23.0516 14.3865 22.1087C13.5075 21.1657 11.9152 21.2213 10.8301 22.2329C9.74492 23.2444 9.57782 24.8289 10.4568 25.7718C11.3359 26.7148 12.9281 26.6592 14.0133 25.6476Z" fill="#00DFA2"/>
<path d="M28.3717 25.6486C29.4568 24.637 29.6239 23.0526 28.7449 22.1096C27.8659 21.1667 26.2736 21.2223 25.1885 22.2338C24.1033 23.2454 23.9362 24.8299 24.8152 25.7728C25.6943 26.7158 27.2865 26.6602 28.3717 25.6486Z" fill="#00DFA2"/>
<path d="M2.62715 13.2672C2.62715 12.641 2.11949 12.1333 1.49326 12.1333C0.867033 12.1333 0.359375 12.641 0.359375 13.2672C0.359375 13.8934 0.867033 14.4011 1.49326 14.4011C2.11949 14.4011 2.62715 13.8934 2.62715 13.2672Z" fill="#00DFA2"/>
<path d="M23.0085 23.7029C23.4116 21.7107 25.2935 20.1276 27.3163 20.1276C29.264 20.1276 30.6678 21.5958 30.6293 23.4837C32.7357 23.5389 33.3221 20.7651 33.3221 20.7651C33.4994 19.9894 33.7643 18.4774 33.9861 16.9932C34.0588 16.535 34.003 16.0655 33.8248 15.6372C33.2741 14.3518 32.6087 13.1187 31.8366 11.953C31.1061 10.8632 29.8809 10.2178 28.4824 10.1945C27.6483 10.1812 26.8295 10.1733 26.2113 10.1733L26.206 10.1679C26.1263 8.83451 25.1541 7.81318 23.7894 7.691C22.9016 7.61197 19.3847 7.5542 17.6967 7.5542C17.026 7.5542 16.0637 7.5635 15.0902 7.57943V7.57545H15.0823H3.37749C3.22852 7.57536 3.08099 7.60464 2.94334 7.66161C2.80569 7.71858 2.68062 7.80212 2.57528 7.90746C2.46994 8.0128 2.3864 8.13787 2.32943 8.27552C2.27246 8.41317 2.24318 8.5607 2.24327 8.70967V8.71498C2.24327 9.01439 2.36221 9.30153 2.57392 9.51324C2.78563 9.72495 3.07277 9.84389 3.37218 9.84389H5.73159C6.0157 9.86483 6.28138 9.99242 6.47535 10.201C6.66933 10.4097 6.77726 10.6839 6.77749 10.9688V10.9748C6.77793 11.1239 6.74896 11.2716 6.69223 11.4095C6.63551 11.5475 6.55216 11.6728 6.44693 11.7785C6.34171 11.8841 6.21668 11.968 6.07901 12.0253C5.94133 12.0826 5.79372 12.1122 5.6446 12.1123H4.43468C4.13404 12.1123 3.84572 12.2318 3.63313 12.4443C3.42055 12.6569 3.30112 12.9452 3.30112 13.2459C3.30104 13.3948 3.33029 13.5423 3.38722 13.6799C3.44415 13.8175 3.52763 13.9425 3.6329 14.0479C3.73817 14.1532 3.86316 14.2367 4.00073 14.2938C4.1383 14.3508 4.28576 14.3801 4.43468 14.3801H5.6446C5.94541 14.3801 6.23391 14.4996 6.44661 14.7123C6.65932 14.925 6.77882 15.2135 6.77882 15.5143C6.77882 15.8151 6.65932 16.1036 6.44661 16.3163C6.23391 16.529 5.94541 16.6485 5.6446 16.6485H1.11835C0.817651 16.6485 0.529259 16.7679 0.316571 16.9805C0.103882 17.1931 -0.0156931 17.4814 -0.0158691 17.7821C-0.0158691 18.0829 0.103629 18.3714 0.316336 18.5841C0.529043 18.7968 0.817536 18.9163 1.11835 18.9163H5.6446C5.94541 18.9163 6.23391 19.0358 6.44661 19.2485C6.65932 19.4612 6.77882 19.7497 6.77882 20.0505C6.77847 20.3511 6.65881 20.6393 6.44614 20.8517C6.23348 21.0641 5.94518 21.1834 5.6446 21.1834H4.24476C3.94412 21.1834 3.65579 21.3029 3.44321 21.5154C3.23063 21.728 3.1112 22.0163 3.1112 22.317C3.1112 22.6177 3.23061 22.9061 3.44317 23.1188C3.65574 23.3314 3.94406 23.451 4.24476 23.4512L8.71124 23.4479L9.08245 22.5228C9.8428 21.1203 11.3555 20.1269 12.9573 20.1269C14.9807 20.1269 16.4177 21.7114 16.2596 23.7049H23.0078M11.7586 12.6403H10.2366C10.2352 12.6404 10.2338 12.641 10.2327 12.6419C10.2316 12.6429 10.2309 12.6442 10.2306 12.6456L10.0905 13.6417C10.0903 13.6425 10.0903 13.6433 10.0904 13.6441C10.0906 13.6449 10.091 13.6457 10.0915 13.6463C10.092 13.647 10.0927 13.6475 10.0934 13.6478C10.0942 13.6482 10.095 13.6483 10.0958 13.6483H11.2287C11.2843 13.6467 11.3396 13.6576 11.3904 13.6801C11.4413 13.7025 11.4866 13.7361 11.5228 13.7783C11.5591 13.8205 11.5855 13.8702 11.6001 13.9239C11.6147 13.9776 11.6171 14.0338 11.6072 14.0886C11.5878 14.2089 11.5271 14.3187 11.4354 14.399C11.3438 14.4794 11.227 14.5253 11.1052 14.5289H9.97097C9.96959 14.5288 9.96824 14.5293 9.96715 14.5301C9.96606 14.531 9.9653 14.5322 9.96499 14.5335L9.76179 15.9805C9.74238 16.1008 9.68162 16.2106 9.58999 16.291C9.49836 16.3713 9.38158 16.4172 9.25976 16.4208C9.20417 16.4224 9.14893 16.4115 9.09807 16.389C9.04721 16.3665 9.00201 16.333 8.9658 16.2908C8.92958 16.2486 8.90325 16.1988 8.88874 16.1451C8.87422 16.0914 8.87189 16.0352 8.8819 15.9805L9.40917 12.2272C9.43006 12.1001 9.49448 11.9843 9.5914 11.8995C9.68831 11.8147 9.8117 11.7662 9.94042 11.7624H11.8815C11.9371 11.7608 11.9923 11.7716 12.0432 11.7941C12.094 11.8166 12.1392 11.8502 12.1754 11.8924C12.2117 11.9346 12.238 11.9843 12.2525 12.038C12.267 12.0917 12.2693 12.1479 12.2593 12.2026C12.2396 12.3224 12.1789 12.4315 12.0876 12.5114C11.9962 12.5912 11.8799 12.6368 11.7586 12.6403ZM15.8267 12.0612C15.9848 12.2015 16.0961 12.3869 16.1454 12.5924C16.2006 12.8253 16.2096 13.0667 16.172 13.303C16.1258 13.6707 15.9753 14.0175 15.7383 14.3024C15.5936 14.4735 15.4098 14.6072 15.2025 14.6922C15.2015 14.6932 15.201 14.6945 15.201 14.6959C15.201 14.6972 15.2015 14.6985 15.2025 14.6995L15.5796 15.7879C15.6812 16.0801 15.4203 16.4208 15.0955 16.4208H15.0743C14.9955 16.4231 14.918 16.4003 14.8531 16.3556C14.7881 16.311 14.7391 16.2468 14.713 16.1724L14.2568 14.8443C14.2562 14.8433 14.2553 14.8425 14.2543 14.8419C14.2532 14.8413 14.252 14.841 14.2509 14.841H13.2813C13.28 14.841 13.2787 14.8415 13.2776 14.8423C13.2765 14.8432 13.2757 14.8443 13.2753 14.8456L13.116 15.9798C13.0966 16.1001 13.0358 16.2099 12.9442 16.2903C12.8525 16.3707 12.7358 16.4166 12.6139 16.4201C12.5583 16.4217 12.5031 16.4109 12.4522 16.3884C12.4014 16.3659 12.3562 16.3323 12.32 16.2901C12.2838 16.2479 12.2574 16.1981 12.2429 16.1445C12.2284 16.0908 12.2261 16.0345 12.2361 15.9798L12.7633 12.2265C12.7842 12.0995 12.8487 11.9836 12.9456 11.8988C13.0425 11.814 13.1659 11.7655 13.2946 11.7617H14.7954C14.7954 11.7617 15.4541 11.7411 15.8267 12.0612ZM19.9571 12.1714C19.9391 12.2838 19.8824 12.3864 19.7968 12.4614C19.7112 12.5365 19.6021 12.5793 19.4883 12.5825H17.7425C17.7411 12.5826 17.7398 12.583 17.7388 12.5839C17.7377 12.5847 17.7369 12.5858 17.7365 12.5871L17.5977 13.5726C17.5975 13.5734 17.5975 13.5742 17.5977 13.575C17.5978 13.5758 17.5982 13.5766 17.5987 13.5773C17.5992 13.5779 17.5999 13.5784 17.6006 13.5788C17.6014 13.5791 17.6022 13.5793 17.603 13.5792H18.9591C19.011 13.5777 19.0626 13.5878 19.1101 13.6088C19.1577 13.6297 19.1999 13.6611 19.2338 13.7005C19.2676 13.7399 19.2923 13.7864 19.3058 13.8365C19.3194 13.8866 19.3217 13.9392 19.3123 13.9903C19.2943 14.1027 19.2376 14.2052 19.152 14.2803C19.0664 14.3553 18.9573 14.3982 18.8435 14.4014H17.4868C17.4855 14.4014 17.4842 14.4019 17.4831 14.4027C17.482 14.4036 17.4813 14.4047 17.4808 14.406L17.3142 15.592C17.3142 15.5937 17.3148 15.5953 17.3159 15.5965C17.317 15.5977 17.3185 15.5985 17.3201 15.5987H19.0646C19.1166 15.5971 19.1682 15.6072 19.2157 15.6282C19.2632 15.6492 19.3055 15.6805 19.3393 15.7199C19.3732 15.7593 19.3978 15.8058 19.4114 15.8559C19.425 15.9061 19.4272 15.9586 19.4179 16.0097C19.3999 16.1221 19.3432 16.2247 19.2576 16.2997C19.172 16.3748 19.0629 16.4176 18.9491 16.4208H16.7842C16.7258 16.4216 16.668 16.4095 16.6147 16.3855C16.5615 16.3615 16.5142 16.326 16.4762 16.2817C16.4381 16.2373 16.4103 16.1851 16.3947 16.1288C16.3791 16.0726 16.3761 16.0135 16.3858 15.9559L16.9098 12.2292C16.9306 12.1021 16.9951 11.9863 17.092 11.9015C17.1889 11.8167 17.3123 11.7682 17.441 11.7644H19.6052C19.6566 11.7631 19.7077 11.7733 19.7547 11.7941C19.8017 11.815 19.8435 11.846 19.8772 11.8849C19.9108 11.9238 19.9354 11.9697 19.9493 12.0192C19.9631 12.0687 19.9658 12.1207 19.9571 12.1714ZM23.5836 12.1714C23.5655 12.2838 23.5088 12.3864 23.4232 12.4614C23.3376 12.5365 23.2285 12.5793 23.1148 12.5825H21.3689C21.3676 12.5826 21.3663 12.583 21.3652 12.5839C21.3642 12.5847 21.3634 12.5858 21.363 12.5871L21.2248 13.5726C21.2246 13.5734 21.2246 13.5742 21.2248 13.575C21.225 13.5758 21.2253 13.5766 21.2258 13.5773C21.2263 13.5779 21.227 13.5784 21.2278 13.5788C21.2285 13.5791 21.2293 13.5793 21.2301 13.5792H22.5862C22.6381 13.5777 22.6897 13.5878 22.7372 13.6088C22.7848 13.6297 22.827 13.6611 22.8609 13.7005C22.8947 13.7399 22.9194 13.7864 22.933 13.8365C22.9466 13.8866 22.9488 13.9392 22.9394 13.9903C22.9214 14.1027 22.8647 14.2052 22.7791 14.2803C22.6935 14.3553 22.5844 14.3982 22.4706 14.4014H21.1133C21.1119 14.4014 21.1106 14.4019 21.1096 14.4027C21.1085 14.4036 21.1077 14.4047 21.1073 14.406L20.9406 15.592C20.9406 15.5937 20.9412 15.5953 20.9423 15.5965C20.9434 15.5977 20.9449 15.5985 20.9466 15.5987H22.6911C22.743 15.5971 22.7946 15.6072 22.8422 15.6282C22.8897 15.6492 22.9319 15.6805 22.9658 15.7199C22.9997 15.7593 23.0243 15.8058 23.0379 15.8559C23.0515 15.9061 23.0537 15.9586 23.0444 16.0097C23.0263 16.1221 22.9696 16.2247 22.884 16.2997C22.7984 16.3748 22.6893 16.4176 22.5755 16.4208H20.4107C20.3523 16.4216 20.2944 16.4095 20.2412 16.3855C20.1879 16.3615 20.1406 16.326 20.1026 16.2817C20.0646 16.2373 20.0368 16.1851 20.0212 16.1288C20.0056 16.0726 20.0025 16.0135 20.0123 15.9559L20.5362 12.2292C20.5571 12.1021 20.6215 11.9863 20.7184 11.9015C20.8153 11.8167 20.9387 11.7682 21.0675 11.7644H23.2316C23.2831 11.7631 23.3341 11.7733 23.3811 11.7941C23.4282 11.815 23.47 11.846 23.5036 11.8849C23.5373 11.9238 23.5619 11.9697 23.5757 12.0192C23.5895 12.0687 23.5922 12.1207 23.5836 12.1714ZM26.107 11.7458C26.7 11.7458 27.4677 11.7537 28.238 11.7663C29.1717 11.7816 29.9885 12.2106 30.4785 12.9424C31.002 13.7316 31.4725 14.5546 31.887 15.4061C32.1062 15.8523 31.7031 16.4334 31.1751 16.4334H25.514L26.107 11.7458Z" fill="#00DFA2"/>
<path d="M14.4401 14.0197H13.3909L13.5901 12.5827H14.6386C14.6386 12.5827 15.4083 12.5329 15.2821 13.3012C15.2854 13.3012 15.1971 14.0197 14.4401 14.0197Z" fill="#00DFA2"/>
</g>
<defs>
<clipPath id="clip0_16245_240">
<rect width="34" height="34" fill="white"/>
</clipPath>
</defs>
</svg>
